<svg width="255" height="161" viewBox="0 0 255 161" fill="none" xmlns="http://www.w3.org/2000/svg">
<path d="M148.82 159.213C140.512 155.652 125.398 146.906 129.506 140.105C133.61 133.309 139.545 138.53 141.277 141.348C141.38 137.371 143.824 128.578 150.222 131.658C157.157 134.997 149.137 150.285 143.659 159.213" stroke="white" stroke-width="3" stroke-linecap="round" stroke-linejoin="round"/>
<path d="M72.283 34.3617C73.3617 37.8879 62.1793 45.1297 59.9895 46.1861C60.1962 47.1853 60.5279 48.3758 60.5174 49.3525C60.5017 49.7817 60.0741 49.9485 59.8673 49.985C59.1287 50.1152 57.3023 49.432 56.8593 48.4744C56.7238 48.2241 56.597 47.8504 56.4545 47.3882C55.3966 43.9801 54.1397 34.6059 55.0835 34.2567C57.7425 33.27 60.1339 32.6656 62.1724 32.3061C65.0973 31.7904 67.3756 31.7542 68.5956 31.9351C70.3786 32.1995 71.8869 33.1521 72.283 34.3617ZM68.8142 34.7296C67.4517 34.6043 65.2185 34.7239 62.2641 35.2448C60.9937 35.4688 59.5808 35.7484 58.0949 36.1323C58.2251 37.3888 58.7112 40.8368 59.2496 43.0265C61.7993 41.4194 68.237 36.2936 68.8142 34.7296ZM78.6197 33.6099C79.4796 36.4132 80.5942 43.7714 79.9059 44.5325C79.7547 44.7115 79.534 44.8418 79.2681 44.8886C78.4999 45.0241 77.4244 43.9343 77.0195 43.366C76.7693 42.9836 76.4514 42.2172 76.2117 41.376C75.3466 38.5432 74.1952 33.0497 74.4056 32.3424C74.5534 31.7985 75.252 31.6144 75.577 31.5571C76.1974 31.4477 77.4748 31.4357 78.0151 32.2543C78.2549 32.5775 78.4616 33.059 78.6197 33.6099ZM94.0847 26.2222C94.2931 26.8861 93.7995 27.3691 93.2746 27.6749C90.8519 29.1379 86.4405 34.1805 87.6599 37.9866C88.5285 40.6664 91.9205 42.6272 94.6888 43.8146C95.4812 44.1622 96.0355 44.3691 96.2684 44.4804C96.7584 44.6681 97.1824 45.1722 97.3196 45.6049C97.4065 45.9247 97.4064 46.4426 96.8172 46.7292C96.4731 46.8508 96.3862 47.0489 95.8544 47.1427C95.5885 47.1896 95.3174 47.2069 94.9959 47.1113C90.5889 45.7865 85.1585 42.6315 83.7637 38.0034C82.3011 32.9912 85.9722 27.8963 90.6769 25.2085C90.8437 25.1182 90.9567 25.0678 91.1044 25.0418C91.6953 24.9376 93.7286 25.0665 94.0847 26.2222ZM110.472 28.7855C111.163 30.9788 111.052 33.801 110.184 36.4824C109.292 39.1985 105.83 42.8858 102.432 43.4849C100.039 43.9068 98.4858 42.8709 97.8186 42.1965C97.485 41.8593 96.7014 40.8703 96.248 39.3358C94.8288 34.7424 97.2261 28.9887 101.569 26.6693C102.124 26.3583 102.739 26.2193 103.448 26.0943C103.747 25.3714 104.725 25.0466 105.405 24.9268C105.996 24.8226 106.953 24.8974 107.711 25.2208C109.296 25.9161 110.085 27.4525 110.472 28.7855ZM106.637 29.4923C106.468 28.8823 106.051 28.0724 105.507 27.9246C105.25 27.8481 104.855 27.8567 104.584 27.874C104.012 28.4318 103.317 28.9809 102.61 29.8063C100.555 32.1486 99.0776 36.5521 99.9739 39.5622C100.182 40.2261 100.551 41.1055 101.496 40.9388C104.185 40.4647 105.819 37.4654 106.46 35.4027C107.17 33.2061 107.069 30.9087 106.637 29.4923ZM126.807 25.7224C127.022 26.5983 127.083 27.8062 127.175 28.6734C127.291 30.0237 127.47 31.7286 127.73 33.7236C127.892 34.6395 126.442 35.2302 125.94 35.3187C125.733 35.3552 125.403 35.383 125.106 35.2526C124.447 34.9727 122.8 33.9228 121.187 32.8973C120.289 32.2941 119.361 31.6961 118.409 31.1329C118.534 31.842 118.669 32.6102 118.834 33.3731C119.083 34.6087 119.301 35.8496 119.293 36.4909C119.277 36.9201 119.044 37.3267 118.512 37.4205C117.449 37.6081 116.185 36.4904 115.961 35.7379C115.656 34.6952 114.695 28.5587 114.425 27.0224C114.284 26.2247 115.281 25.8355 115.725 25.7574C115.931 25.7209 116.262 25.6932 116.594 25.8479C116.792 25.9348 117.372 26.2894 118.027 26.7222C119.953 27.9668 121.854 29.2461 123.798 30.4264C123.723 29.8303 123.713 29.2533 123.638 28.6572C123.496 27.1592 123.323 25.4839 123.443 25.1276C123.571 24.648 124.018 24.4169 124.402 24.3492C125.406 24.1721 126.512 24.7388 126.807 25.7224ZM152.124 18.7604C152.205 19.0507 152.164 19.3322 152.063 19.6241C151.875 20.1142 150.587 20.585 148.825 20.9566C147.24 21.297 145.137 21.6373 142.961 22.0819C142.725 22.1236 142.829 23.7503 142.937 24.7061C143.552 24.5671 144.226 24.4178 144.965 24.2875C146.324 24.0479 147.693 23.8674 148.512 23.8449C149.991 23.7669 152.344 24.3268 152.848 25.9744C153.488 28.0547 149.353 33.1095 147.39 34.065C147.08 34.211 146.76 34.2978 146.465 34.3499C145.638 34.4958 144.694 34.3271 144.38 33.9256L144.359 33.8074C144.303 33.6649 144.548 32.982 145.266 32.2157C146.081 31.3104 149.721 27.5919 149.365 26.4361C149.202 25.8557 147.415 26.2621 147.149 26.309C145.435 26.6111 143.873 27.2522 142.305 27.8637C142.222 27.9089 142.163 27.9193 142.074 27.9349C141.306 28.0703 139.899 27.3437 139.749 27.1873C139.426 26.9092 139.299 26.5355 139.178 26.1914C138.755 24.8341 138.875 23.96 139.011 23.1745C139.161 22.2952 139.322 21.6574 139.126 20.7172C139.074 20.4217 139.012 20.0672 139.118 19.8048C139.321 19.4034 139.933 18.8995 140.435 18.8109C140.937 18.7224 141.26 19.0005 141.662 19.2039C144.142 18.5838 146.705 17.9186 148.419 17.6164C149.571 17.4132 150.513 17.3995 150.855 17.6133C151.366 17.9192 151.936 18.2147 152.124 18.7604ZM169.627 25.2699C170.247 27.232 166.024 30.7489 164.086 31.8521C163.723 32.038 163.325 32.1996 162.852 32.283C160.163 32.757 157.753 31.3542 157.01 28.8655C155.743 24.7936 159.221 13.7621 165.011 12.7411C165.868 12.59 167.213 12.9621 167.488 13.8276C167.635 14.3194 167.338 14.7069 166.945 14.898C165.63 15.5565 159.339 23.7635 160.876 28.8539C160.942 29.0555 161.311 29.417 161.577 29.3701C163.113 29.0992 166.297 26.2531 166.973 24.7326C167.123 24.3711 167.451 24.1609 167.835 24.0931C168.604 23.9577 169.387 24.4288 169.627 25.2699ZM183.072 22.7774C183.154 23.0676 183.082 23.3543 182.941 23.5924C182.417 24.4161 179.222 28.2389 177.63 28.8852C177.512 28.906 177.399 28.9564 177.281 28.9772C176.512 29.1127 175.607 28.8154 174.571 28.2974C174.373 28.2104 174.118 27.7985 173.93 27.2528C173.187 24.7641 171.521 16.0103 171.671 13.5773C171.685 12.9656 172.2 12.6007 172.702 12.5122C173.411 12.3871 174.311 12.6549 174.855 13.3206C175.015 13.5361 175.126 13.8211 175.197 14.0523C175.722 15.818 176.31 21.228 177.323 24.5527C178.557 23.604 179.84 22.5858 180.403 22.1514C180.618 21.9915 180.874 21.8856 181.14 21.8387C181.76 21.7293 182.808 21.971 183.072 22.7774ZM126.213 61.7429C126.391 62.412 125.682 63.0549 125.319 63.2408C125.23 63.2564 125.112 63.2773 124.994 63.2981C124.817 63.3294 124.551 63.3762 124.255 63.4283C123.517 63.5586 122.458 63.7756 121.504 64.0657C121.556 64.3612 121.628 64.5923 121.699 64.8235L121.781 65.1137C122.229 66.6187 121.813 67.0271 121.46 68.3078C121.25 69.0151 121.022 69.4513 120.165 69.6024C119.397 69.7378 118.664 69.3797 118.464 68.5924C118.245 67.8694 117.893 66.5608 117.603 65.0888C117.022 65.2521 116.412 65.4206 115.832 65.5838C114.902 65.8392 114.179 66.058 113.983 66.1536C113.811 66.2144 113.668 66.27 113.491 66.3012C113.225 66.3481 112.436 66.3654 112.257 65.6963C112.115 65.234 112.412 64.8465 112.641 64.5928C113.257 63.936 115.58 62.9475 117.064 62.3811C116.844 60.9578 116.872 60.2522 116.935 59.0531C116.982 57.7654 117.51 56.7888 118.101 56.6846C118.603 56.596 118.985 56.8637 119.18 57.1036C119.769 57.8527 120.573 59.9956 120.93 61.1513L120.98 61.2642C121.364 61.1965 121.778 61.1236 122.191 61.0507C122.841 60.9361 125.856 60.5872 126.213 61.7429ZM69.8437 94.6512C70.7487 97.5379 64.6587 101.353 62.5245 102.552C63.9877 102.903 65.8297 103.675 66.2727 105.151C66.3491 105.411 66.3612 105.653 66.349 105.929C66.227 108.693 62.744 111.226 59.6714 111.768C59.5827 111.783 59.4646 111.804 59.3759 111.82C58.3071 111.978 56.6755 110.499 56.4271 109.781C56.3263 109.555 56.2551 109.324 56.1787 109.063C54.8811 104.814 53.9737 93.794 54.5543 93.1128C55.1105 92.4664 56.8814 91.9713 58.6245 91.664C61.313 91.1899 64.9608 90.9732 66.6291 91.6234C67.8768 92.1345 69.4719 93.4068 69.8437 94.6512ZM65.6068 94.6367C65.5147 94.2874 64.0481 93.5712 60.7096 94.1598C59.9119 94.3005 59.036 94.5159 58.1409 94.7955C58.1825 96.0676 58.5904 99.5903 58.8039 101.32C60.0952 100.696 66.4284 97.5686 65.6068 94.6367ZM62.0269 106.295C61.742 105.371 60.4161 104.934 59.2518 104.896C59.3698 105.911 59.6389 107.783 59.8803 108.806C60.8675 108.358 62.317 107.25 62.0269 106.295ZM77.1805 94.7893C78.0404 97.5925 79.155 104.951 78.4667 105.712C78.3155 105.891 78.0948 106.021 77.8289 106.068C77.0608 106.203 75.9852 105.114 75.5803 104.545C75.3301 104.163 75.0122 103.397 74.7725 102.555C73.9075 99.7226 72.756 94.229 72.9664 93.5218C73.1142 92.9778 73.8128 92.7937 74.1378 92.7364C74.7583 92.627 76.0356 92.615 76.5759 93.4336C76.8157 93.7569 77.0224 94.2383 77.1805 94.7893ZM87.0865 84.7262C87.255 85.3362 86.711 85.7063 86.2087 85.7949C85.5883 85.9043 84.7976 85.7391 84.0052 85.3914C82.4794 84.6856 79.3655 82.4016 79.1015 81.5952C78.9538 81.1034 79.3605 80.8184 79.7741 80.7455C80.5127 80.6153 82.1185 80.9109 82.7788 81.3733C83.3053 81.7679 85.3402 83.115 86.4974 83.9771C86.7459 84.177 86.9753 84.4412 87.0865 84.7262ZM94.1486 88.3246C94.2355 88.6443 92.6139 89.8137 90.3928 90.6927C88.7174 91.3842 86.7709 92.0929 85.5873 92.6367C85.7575 93.9471 86.2559 96.6009 86.4955 97.9599C88.018 97.265 89.3527 96.5422 91.0611 96.2105C92.9762 95.8424 95.0112 96.6716 95.2092 97.2764C95.3203 98.0793 94.1454 99.0176 93.3181 99.1634C93.2295 99.1791 93.1409 99.1947 93.0522 99.2103C91.9887 99.3979 89.479 100.541 87.3483 101.587C87.3604 101.828 87.4473 102.148 87.5845 102.581C87.7373 103.102 87.8259 103.605 87.8901 104.142C88.1995 103.996 88.4689 103.796 88.773 103.62C89.3275 103.309 90.0783 102.903 90.6987 102.793C91.6441 102.627 94.2717 103.016 94.4645 103.592C94.8258 104.777 91.2265 106.478 90.3575 106.905C89.7145 107.232 89.1166 107.642 88.378 107.772C87.6689 107.897 86.6627 107.892 85.912 107.263C84.8486 106.414 84.0685 104.755 83.5491 103.018C82.8578 100.825 82.4289 98.22 82.1824 96.1311C81.9515 94.1308 81.8388 92.6275 81.8319 92.4155C81.7415 92.2486 81.606 91.9984 81.5296 91.7377C81.1891 90.6706 81.794 89.9547 82.9167 89.7567C83.2121 89.7046 83.4884 89.7168 83.7595 89.6995C85.6522 88.5128 88.8361 87.2203 90.2838 86.965C90.9338 86.8504 93.8516 87.1584 94.1486 88.3246ZM117.286 87.1083C118.365 90.6345 108.279 96.4949 105.575 97.9161C107.236 98.3543 111.298 99.6182 111.588 100.572C111.796 101.236 110.842 102.044 109.867 102.216C108.922 102.383 107.995 101.967 107.085 101.641C105.427 101.049 103.813 100.359 102.156 99.9506C102.478 101.082 103.223 102.717 103.397 103.357C103.616 104.08 103.207 104.7 102.38 104.846C101.789 104.95 101.082 104.74 100.559 104.193C99.862 103.523 98.8683 101.17 98.2065 98.9717C97.9059 97.9585 97.635 96.94 97.5082 96.0485C97.0672 93.2018 96.9149 88.5374 97.5041 88.2508C101.501 86.3883 105.412 85.2419 108.337 84.7262C110.08 84.4188 111.559 84.3408 112.497 84.48C114.35 84.793 116.793 85.5198 117.286 87.1083ZM113.324 87.4414C112.606 87.1719 111.27 87.1943 109.379 87.5277C106.454 88.0435 102.938 89.1813 100.658 90.0707C100.521 91.7095 100.779 94.5579 101.252 96.5461C105.045 95.0851 112.547 89.2539 113.324 87.4414ZM131.714 81.7008C131.8 82.0206 130.179 83.19 127.958 84.069C126.282 84.7604 124.336 85.4692 123.152 86.013C123.323 87.3234 123.821 89.9771 124.061 91.3362C125.583 90.6412 126.918 89.9185 128.626 89.5868C130.541 89.2186 132.576 90.0479 132.774 90.6527C132.885 91.4556 131.71 92.3938 130.883 92.5397C130.795 92.5553 130.706 92.571 130.617 92.5866C129.554 92.7741 127.044 93.9173 124.913 94.9632C124.925 95.2047 125.012 95.5245 125.15 95.9573C125.302 96.4786 125.391 96.9809 125.455 97.5179C125.765 97.372 126.034 97.1722 126.338 96.9967C126.892 96.6857 127.643 96.2791 128.264 96.1697C129.209 96.003 131.837 96.3927 132.03 96.9679C132.391 98.1532 128.792 99.854 127.923 100.281C127.279 100.608 126.682 101.018 125.943 101.148C125.234 101.273 124.228 101.268 123.477 100.639C122.414 99.7906 121.634 98.1308 121.114 96.3946C120.452 94.1962 119.994 91.5963 119.747 89.5073C119.517 87.507 119.404 86.0038 119.397 85.7918C119.307 85.6249 119.171 85.3746 119.095 85.114C118.754 84.0469 119.359 83.331 120.482 83.133C120.777 83.0809 121.053 83.0931 121.325 83.0758C123.217 81.8891 126.401 80.5966 127.849 80.3413C128.499 80.2267 131.417 80.5347 131.714 81.7008ZM157.3 79.1999C157.569 80.0358 156.68 82.0812 155.717 84.0483C154.793 85.8868 153.004 88.1823 151.94 89.9234C152.82 89.5551 154.572 88.6065 155.517 88.4398C155.783 88.3929 158.607 88.687 158.86 89.4343C158.942 89.7246 158.86 89.9522 158.704 90.1016C158.261 90.6977 151.066 93.4286 150.106 93.6891C150.018 93.7047 149.899 93.7256 149.811 93.7412C148.57 93.96 147.07 93.4019 146.775 92.4183C146.754 92.3001 146.733 92.1819 146.707 92.0342C146.751 91.4173 149.485 86.8836 149.989 85.9417C151.284 83.6115 152.423 81.4306 152.713 80.3132C151.073 81.029 147.506 83.6075 145.987 85.7031C145.744 86.0506 145.252 86.1983 144.927 86.2556C144.129 86.3962 143.076 86.125 142.878 85.5202C142.847 85.3429 142.875 85.1552 142.913 85.0267C143.921 82.1072 150.797 77.9095 152.806 77.5553C153.869 77.3677 156.938 78.0146 157.3 79.1999ZM173.564 75.9055C173.646 76.1958 173.604 76.4773 173.503 76.7692C173.315 77.2593 172.028 77.7301 170.265 78.1017C168.68 78.4421 166.578 78.7824 164.402 79.227C164.165 79.2687 164.269 80.8954 164.377 81.8512C164.992 81.7122 165.667 81.5629 166.405 81.4326C167.764 81.193 169.134 81.0125 169.952 80.99C171.431 80.912 173.784 81.4719 174.288 83.1195C174.929 85.1998 170.794 90.2546 168.83 91.2101C168.52 91.3561 168.201 91.4429 167.905 91.495C167.078 91.6409 166.134 91.4722 165.82 91.0707L165.799 90.9525C165.743 90.81 165.989 90.1271 166.706 89.3608C167.522 88.4555 171.161 84.737 170.805 83.5812C170.642 83.0008 168.855 83.4072 168.589 83.4541C166.876 83.7562 165.313 84.3973 163.746 85.0088C163.662 85.054 163.603 85.0644 163.515 85.08C162.746 85.2154 161.339 84.4888 161.189 84.3324C160.866 84.0543 160.739 83.6806 160.618 83.3365C160.196 81.9792 160.316 81.1051 160.451 80.3196C160.601 79.4403 160.763 78.8025 160.566 77.8623C160.514 77.5668 160.452 77.2123 160.558 76.9499C160.761 76.5485 161.373 76.0446 161.875 75.956C162.378 75.8675 162.701 76.1456 163.102 76.349C165.582 75.7289 168.146 75.0637 169.859 74.7615C171.011 74.5583 171.953 74.5446 172.296 74.7584C172.807 75.0643 173.376 75.3598 173.564 75.9055ZM191.067 82.415C191.687 84.3771 187.464 87.894 185.526 88.9972C185.163 89.1831 184.765 89.3447 184.292 89.4281C181.604 89.9021 179.193 88.4993 178.45 86.0106C177.184 81.9387 180.661 70.9072 186.452 69.8862C187.308 69.7351 188.653 70.1072 188.928 70.9727C189.076 71.4645 188.778 71.852 188.386 72.0431C187.07 72.7016 180.779 80.9086 182.317 85.999C182.383 86.2006 182.751 86.5621 183.017 86.5152C184.553 86.2443 187.737 83.3982 188.414 81.8777C188.563 81.5162 188.892 81.306 189.276 81.2382C190.044 81.1028 190.828 81.5739 191.067 82.415ZM204.512 79.9225C204.594 80.2127 204.523 80.4994 204.382 80.7375C203.857 81.5612 200.662 85.384 199.07 86.0303C198.952 86.0511 198.839 86.1015 198.721 86.1223C197.953 86.2578 197.047 85.9605 196.012 85.4425C195.813 85.3555 195.558 84.9436 195.37 84.3979C194.627 81.9092 192.962 73.1554 193.111 70.7224C193.125 70.1107 193.64 69.7458 194.142 69.6573C194.851 69.5322 195.751 69.8 196.295 70.4657C196.455 70.6812 196.566 70.9662 196.637 71.1974C197.162 72.9631 197.75 78.3731 198.763 81.6978C199.997 80.7491 201.28 79.7309 201.843 79.2965C202.058 79.1366 202.314 79.0307 202.58 78.9838C203.2 78.8744 204.248 79.1161 204.512 79.9225ZM137.633 116.938C137.73 117.317 137.513 117.812 136.811 118.149C135.431 118.789 133.156 120.226 132.507 120.523C132.252 120.629 131.849 120.761 131.465 120.828C130.283 121.037 128.981 120.566 128.889 120.216C128.636 119.469 132.777 116.698 134.658 116.305C134.746 116.29 134.835 116.274 134.924 116.258C136.283 116.019 137.44 116.363 137.633 116.938ZM138.708 121.135C138.84 121.539 138.623 122.034 137.921 122.371C136.541 123.01 134.236 124.452 133.617 124.744C133.338 124.885 132.959 124.982 132.575 125.05C131.422 125.253 130.091 124.787 129.97 124.443C129.746 123.69 133.887 120.919 135.768 120.527C135.856 120.511 135.969 120.461 136.028 120.45C137.387 120.211 138.55 120.584 138.708 121.135Z" fill="white"/>
</svg>
