<svg width="48" height="48" viewBox="0 0 48 48" fill="none" xmlns="http://www.w3.org/2000/svg">
<circle cx="24" cy="24" r="24" fill="white"/>
<path fill-rule="evenodd" clip-rule="evenodd" d="M30.9477 27.593C30.969 28.7584 30.5344 29.8861 29.7364 30.7356C28.889 31.5371 27.7599 31.9724 26.5938 31.9471C25.3555 32.0176 21.6437 32.0176 20.4062 31.9471C19.2408 31.9682 18.1133 31.5335 17.2636 30.7356C16.463 29.8878 16.0279 28.759 16.0523 27.593C15.9826 26.3545 15.9826 22.6418 16.0523 21.404C16.0295 20.2381 16.4643 19.1097 17.2636 18.2607C18.1131 17.4629 19.2411 17.0294 20.4062 17.0529C21.6445 16.9824 25.3563 16.9824 26.5938 17.0529C27.7593 17.0311 28.8871 17.4659 29.7364 18.2644C30.5371 19.1123 30.9721 20.241 30.9477 21.407C31.0174 22.6455 31.0174 26.3545 30.9477 27.593ZM29.6502 24.5C29.6502 23.4085 29.7402 21.0656 29.3501 20.0784C29.093 19.4263 28.577 18.9102 27.9251 18.653C26.9411 18.2652 24.5958 18.353 23.5045 18.353C22.4132 18.353 20.0709 18.2622 19.0839 18.653C18.4321 18.9104 17.9162 19.4265 17.6589 20.0784C17.2711 21.0626 17.3588 23.4085 17.3588 24.5C17.3588 25.5915 17.2681 27.9343 17.6589 28.9216C17.9164 29.5734 18.4323 30.0894 19.0839 30.347C20.0679 30.7348 22.414 30.647 23.5045 30.647C24.595 30.647 26.9381 30.7378 27.9251 30.347C28.5769 30.0896 29.0928 29.5736 29.3501 28.9216C29.7394 27.9374 29.6502 25.5915 29.6502 24.5ZM27.3476 24.5C27.3476 26.6239 25.6265 28.3458 23.503 28.3462C21.3796 28.3467 19.6577 26.6254 19.6569 24.5015C19.6561 22.3776 21.3766 20.655 23.5 20.6538C24.5206 20.6518 25.5 21.0563 26.2218 21.778C26.9436 22.4997 27.3492 23.4792 27.3476 24.5ZM26.0021 24.5C26.0021 23.1194 24.8833 22 23.503 21.9996C22.1227 21.9992 21.0033 23.1179 21.0024 24.4985C21.0016 25.8791 22.1197 26.9992 23.5 27.0004C24.8805 26.9995 25.9997 25.8809 26.0013 24.5H26.0021ZM27.5021 21.3935C27.0051 21.3935 26.6021 20.9904 26.6021 20.4933C26.6021 19.9961 27.0051 19.593 27.5021 19.593C27.9991 19.593 28.4021 19.9961 28.4021 20.4933C28.4035 20.732 28.3094 20.9615 28.1408 21.1306C27.9722 21.2996 27.7431 21.3943 27.5044 21.3935H27.5021Z" fill="#FF280B"/>
</svg>
