<svg width="24" height="24" viewBox="0 0 24 24" fill="none" xmlns="http://www.w3.org/2000/svg">
<circle cx="12" cy="12" r="11.5" stroke="white"/>
<circle cx="12" cy="12" r="12" transform="matrix(-1 0 0 1 24 0)" fill="#A52300"/>
<g clip-path="url(#clip0_3_187)">
<path d="M12 5.51352C8.42353 5.51352 5.51352 8.42353 5.51352 12C5.51352 15.5765 8.42353 18.4865 12 18.4865C15.5765 18.4865 18.4865 15.5765 18.4865 12C18.4865 8.42353 15.5765 5.51352 12 5.51352ZM9.53561 16.9792C7.79193 16.1151 6.63335 14.4179 6.47061 12.465H8.16779C8.24141 14.2513 8.73351 15.871 9.53561 16.9792ZM14.4644 16.9792C15.2665 15.871 15.7586 14.2513 15.8322 12.465H17.5294C17.3667 14.4179 16.2081 16.1151 14.4644 16.9792ZM9.53561 7.02083C8.73351 8.12904 8.24141 9.74872 8.16779 11.535H6.47061C6.63335 9.5821 7.79193 7.88492 9.53561 7.02083ZM9.09775 11.535C9.22949 8.74514 10.5237 6.48998 12 6.48998C13.4763 6.48998 14.7705 8.74514 14.9023 11.535H9.09775ZM14.9023 12.465C14.7705 15.2549 13.4763 17.5139 12 17.5139C10.5237 17.5139 9.22949 15.2587 9.09775 12.465H14.9023ZM17.5294 11.535H15.8322C15.7586 9.74872 15.2665 8.12904 14.4644 7.02083C16.2081 7.88492 17.3667 9.5821 17.5294 11.535Z" fill="white"/>
</g>
<defs>
<clipPath id="clip0_3_187">
<rect width="12.973" height="12.973" fill="white" transform="translate(5.51352 5.51352)"/>
</clipPath>
</defs>
</svg>
