<svg width="192" height="53" viewBox="0 0 192 53" fill="none" xmlns="http://www.w3.org/2000/svg">
<path d="M192 0H0.00012207V53H192V0Z" fill="white"/>
<path d="M15.9339 10.7336L13.9605 12.9902V44.226H24.5781L26.6251 42.207H15.9339V10.7336Z" fill="black"/>
<path d="M35.3282 20.2053C34.5772 19.6115 33.62 19.3145 32.4566 19.3145H26.6251V21.3484H30.7779C31.9265 21.3484 32.8837 21.6454 33.6347 22.2392C34.3858 22.833 34.7686 23.6941 34.7686 24.8224C34.7686 25.1935 34.7245 25.535 34.6508 25.8468C34.9012 25.728 35.1368 25.5795 35.343 25.4162C36.094 24.8224 36.4769 23.9465 36.4769 22.8182C36.4622 21.675 36.0793 20.814 35.3282 20.2053Z" fill="black"/>
<path d="M33.3549 34.8879H26.6251V36.8921H31.2491C33.8114 36.8921 36.1235 36.4022 38.1704 35.3927C39.8639 34.5762 41.2482 33.5221 42.3379 32.1711C41.7194 32.6313 41.0567 33.0322 40.3351 33.3885C38.2588 34.3832 35.932 34.8879 33.3549 34.8879Z" fill="black"/>
<path d="M50.8055 10.7781L48.8027 12.7823V44.1963H59.5381L61.4967 42.207H50.8055V10.7781Z" fill="black"/>
<path d="M130.754 40.7669C127.941 42.207 124.849 42.9196 121.476 42.9196C118.104 42.9196 115.041 42.207 112.243 40.7669C109.43 39.3269 107.221 37.3524 105.587 34.8434C103.952 32.3344 103.142 29.5434 103.142 26.5C103.142 24.3176 103.555 22.2837 104.394 20.3835L103.938 21.2445C102.656 23.5159 102.008 25.9952 102.008 28.6972C102.008 31.7258 102.818 34.4871 104.438 36.9812C106.058 39.4753 108.267 41.435 111.05 42.8602C113.834 44.2854 116.897 44.998 120.225 44.998C123.553 44.998 126.66 44.2854 129.443 42.8602C132.227 41.435 134.435 39.4753 136.055 36.9812L137.44 34.8582C135.79 37.3524 133.567 39.3417 130.754 40.7669Z" fill="black"/>
<path d="M125.129 20.5171C124.024 19.9232 122.817 19.6263 121.476 19.6263C120.136 19.6263 118.958 19.9232 117.854 20.5171C116.735 21.1109 115.866 21.9423 115.233 22.9815C114.967 23.4269 114.761 23.8871 114.599 24.3622C115.144 23.7089 115.822 23.1596 116.617 22.7291C117.721 22.1353 118.929 21.8384 120.225 21.8384C121.521 21.8384 122.758 22.1353 123.847 22.7291C124.937 23.323 125.806 24.1395 126.439 25.1787C127.072 26.2179 127.396 27.3759 127.396 28.6526C127.396 29.4989 127.264 30.2857 126.984 31.0131C127.279 30.6865 127.529 30.3451 127.764 29.9739C128.398 28.9199 128.722 27.7619 128.722 26.4703C128.722 25.1787 128.398 24.0207 127.764 22.9666C127.087 21.9423 126.218 21.1258 125.129 20.5171Z" fill="black"/>
<path d="M88.8726 20.5913C87.7093 19.9529 86.3692 19.6263 84.8229 19.6263C83.5418 19.6263 82.3637 19.9232 81.2887 20.5171C80.1989 21.1109 79.3448 21.9423 78.7116 22.9815C78.3729 23.5456 78.1225 24.1395 77.9605 24.7778C78.5643 23.9316 79.3154 23.2636 80.2431 22.744C81.3181 22.1501 82.4962 21.8532 83.7627 21.8532C85.2942 21.8532 86.6343 22.1798 87.7829 22.8182C88.9315 23.4566 89.874 24.4067 90.6103 25.6538L99.3577 19.9084L100.551 17.6518L91.7295 23.4417C90.9932 22.1798 90.036 21.2297 88.8726 20.5913Z" fill="black"/>
<path d="M93.909 40.9005C91.273 42.2515 88.2689 42.9196 84.9113 42.9196C81.5537 42.9196 78.4318 42.207 75.6485 40.7818C72.8506 39.3566 70.6564 37.3969 69.0365 34.9028C67.4166 32.4087 66.6067 29.6028 66.6067 26.4851C66.6067 24.7333 66.857 23.0854 67.3724 21.5266C66.2385 23.6941 65.6642 26.0694 65.6642 28.6675C65.6642 31.7554 66.4741 34.5465 68.0793 37.0257C69.6844 39.505 71.8786 41.4498 74.6472 42.8602C77.4157 44.2706 80.4787 44.9832 83.8363 44.9832C87.1939 44.9832 90.1391 44.3151 92.7604 42.979C95.3816 41.6428 97.5758 39.8019 99.343 37.4563L100.536 35.3333C98.7686 37.7087 96.545 39.5644 93.909 40.9005Z" fill="black"/>
<path d="M165.655 10.7781L163.799 12.7675V22.9073L165.655 24.1692V10.7781Z" fill="black"/>
<path d="M155.361 28.7417V31.3843L174.167 44.3596H174.255L176.022 42.9196H175.934L155.361 28.7417Z" fill="black"/>
<path d="M144.994 10.0655L142.977 12.3369V44.2409H153.55L155.361 42.207H144.994V10.0655Z" fill="black"/>
<path d="M40.3204 12.2627C38.2587 11.2383 35.932 10.7336 33.3549 10.7336H15.9339V42.207H26.6251V34.8879H33.3549C35.932 34.8879 38.2587 34.3832 40.3204 33.3885C41.042 33.0322 41.7194 32.6313 42.3232 32.1711C43.4571 31.3397 44.4143 30.3302 45.1653 29.1425C46.3434 27.3165 46.9177 25.2232 46.9177 22.8627C46.9177 20.5022 46.3287 18.3644 45.1653 16.5383C44.002 14.6974 42.3821 13.2871 40.3204 12.2627ZM35.3282 25.4162C35.1073 25.5795 34.8865 25.728 34.6361 25.8467C34.0176 26.1585 33.2813 26.307 32.4566 26.307H26.6251V19.3145H32.4566C33.62 19.3145 34.5772 19.6115 35.3282 20.2053C36.0793 20.7991 36.4622 21.675 36.4622 22.8033C36.4622 23.9316 36.0793 24.8224 35.3282 25.4162Z" fill="#FF280B"/>
<path d="M61.4967 10.7781H50.8055V42.207H61.4967V10.7781Z" fill="#FF280B"/>
<path d="M78.6969 22.9963C79.3301 21.9423 80.1989 21.1257 81.2739 20.5319C82.3637 19.9381 83.5418 19.6411 84.8082 19.6411C86.3545 19.6411 87.7093 19.9677 88.8579 20.6061C90.0213 21.2445 90.9638 22.1946 91.7148 23.4565L100.536 17.6666C98.7539 15.3061 96.545 13.4504 93.8943 12.0994C91.2583 10.7484 88.2542 10.0804 84.8966 10.0804C81.539 10.0804 78.4171 10.793 75.6338 12.2182C72.8358 13.6434 70.6416 15.603 69.0218 18.0972C68.3149 19.1958 67.7553 20.3389 67.3577 21.5563C66.8423 23.1151 66.5919 24.763 66.5919 26.5148C66.5919 29.6325 67.4019 32.4383 69.0218 34.9325C70.6416 37.4266 72.8506 39.3862 75.6338 40.8114C78.4171 42.2367 81.5096 42.9493 84.8966 42.9493C88.2836 42.9493 91.2436 42.2812 93.8943 40.9302C96.5303 39.5792 98.7539 37.7235 100.536 35.363L91.7148 29.5731C90.9785 30.835 90.0213 31.7851 88.8579 32.4235C87.6946 33.0619 86.3545 33.3885 84.8082 33.3885C83.5271 33.3885 82.349 33.0916 81.2739 32.4977C80.1842 31.9039 79.3301 31.0725 78.6969 30.0333C78.0636 28.9792 77.7397 27.8212 77.7397 26.5297C77.7397 25.9358 77.8133 25.3717 77.9458 24.8224C78.1078 24.1543 78.3582 23.5605 78.6969 22.9963Z" fill="#FF280B"/>
<path d="M130.754 12.2182C127.941 10.7781 124.849 10.0655 121.476 10.0655C118.104 10.0655 115.041 10.7781 112.243 12.2182C109.43 13.6582 107.221 15.6327 105.587 18.1417C105.116 18.8692 104.718 19.6115 104.394 20.3686C103.569 22.2689 103.142 24.3176 103.142 26.4851C103.142 29.5434 103.952 32.3196 105.587 34.8285C107.221 37.3375 109.445 39.312 112.243 40.7521C115.056 42.1921 118.134 42.9047 121.476 42.9047C124.819 42.9047 127.956 42.1921 130.754 40.7521C133.567 39.312 135.776 37.3375 137.41 34.8285C139.045 32.3196 139.855 29.5285 139.855 26.4851C139.855 23.4417 139.045 20.6507 137.41 18.1417C135.79 15.6327 133.567 13.6582 130.754 12.2182ZM127.735 30.0036C127.499 30.3748 127.249 30.7311 126.955 31.0428C126.439 31.607 125.835 32.082 125.129 32.468C124.024 33.0619 122.817 33.3588 121.476 33.3588C120.136 33.3588 118.958 33.0619 117.854 32.468C116.735 31.8742 115.866 31.0428 115.233 30.0036C114.599 28.9496 114.275 27.7916 114.275 26.5C114.275 25.7577 114.393 25.0451 114.599 24.3919C114.761 23.9019 114.967 23.4417 115.233 23.0112C115.866 21.9571 116.749 21.1406 117.854 20.5468C118.973 19.9529 120.181 19.656 121.476 19.656C122.772 19.656 124.024 19.9529 125.129 20.5468C126.233 21.1406 127.102 21.972 127.735 23.0112C128.368 24.0652 128.692 25.2232 128.692 26.5148C128.692 27.7767 128.368 28.9496 127.735 30.0036Z" fill="#FF280B"/>
<path d="M165.655 10.7781V24.1692L163.799 22.9073L145.082 10.0655H144.994V42.207H155.361V31.3843V28.7417L175.934 42.9196H176.022V10.7781H165.655Z" fill="#FF280B"/>
</svg>
