<svg width="192" height="53" viewBox="0 0 192 53" fill="none" xmlns="http://www.w3.org/2000/svg">
<g clip-path="url(#clip0_213_88)">
<path d="M192 0H0V52.5714H192V0Z" fill="#FF280B"/>
<path d="M35.3281 20.0419C34.5771 19.4529 33.6199 19.1584 32.4565 19.1584H26.6249V21.1758H30.7777C31.9264 21.1758 32.8836 21.4704 33.6346 22.0594C34.3856 22.6484 34.7685 23.5025 34.7685 24.6217C34.7685 24.9898 34.7243 25.3285 34.6507 25.6378C34.9011 25.52 35.1367 25.3727 35.3428 25.2107C36.0939 24.6217 36.4768 23.7529 36.4768 22.6337C36.462 21.4998 36.0792 20.6457 35.3281 20.0419Z" fill="black"/>
<path d="M33.3548 34.6058H26.6249V36.5938H31.249C33.8113 36.5938 36.1233 36.1079 38.1703 35.1065C39.8638 34.2966 41.248 33.2511 42.3378 31.911C41.7193 32.3675 41.0566 32.7651 40.335 33.1185C38.2586 34.1052 35.9319 34.6058 33.3548 34.6058Z" fill="black"/>
<path d="M15.9337 10.6468L13.9604 12.8852V43.8684H24.578L26.6249 41.8657H15.9337V10.6468Z" fill="black"/>
<path d="M50.8053 10.691L48.8026 12.679V43.839H59.538L61.4966 41.8657H50.8053V10.691Z" fill="black"/>
<path d="M125.128 20.3512C124.024 19.7621 122.816 19.4676 121.476 19.4676C120.136 19.4676 118.958 19.7621 117.854 20.3512C116.734 20.9402 115.866 21.7649 115.232 22.7957C114.967 23.2374 114.761 23.694 114.599 24.1652C115.144 23.5172 115.821 22.9724 116.617 22.5453C117.721 21.9563 118.929 21.6618 120.225 21.6618C121.52 21.6618 122.757 21.9563 123.847 22.5453C124.937 23.1344 125.806 23.9443 126.439 24.9751C127.072 26.0059 127.396 27.1545 127.396 28.421C127.396 29.2603 127.264 30.0408 126.984 30.7624C127.278 30.4384 127.529 30.0997 127.764 29.7316C128.398 28.686 128.722 27.5374 128.722 26.2563C128.722 24.9751 128.398 23.8265 127.764 22.7809C127.087 21.7649 126.218 20.9549 125.128 20.3512Z" fill="black"/>
<path d="M130.754 40.4373C127.941 41.8657 124.849 42.5726 121.476 42.5726C118.104 42.5726 115.041 41.8657 112.243 40.4373C109.43 39.0089 107.221 37.0503 105.587 34.5617C103.952 32.073 103.142 29.3045 103.142 26.2857C103.142 24.121 103.555 22.1036 104.394 20.2187L103.937 21.0728C102.656 23.3258 102.008 25.785 102.008 28.4652C102.008 31.4692 102.818 34.2083 104.438 36.6822C106.058 39.1562 108.267 41.1 111.05 42.5137C113.833 43.9273 116.896 44.6342 120.225 44.6342C123.553 44.6342 126.66 43.9273 129.443 42.5137C132.226 41.1 134.435 39.1562 136.055 36.6822L137.439 34.5764C135.79 37.0503 133.567 39.0236 130.754 40.4373Z" fill="black"/>
<path d="M93.9089 40.5698C91.2729 41.9099 88.2687 42.5726 84.9112 42.5726C81.5536 42.5726 78.4317 41.8657 75.6484 40.452C72.8504 39.0383 70.6562 37.0945 69.0364 34.6206C67.4165 32.1466 66.6065 29.3634 66.6065 26.271C66.6065 24.5333 66.8569 22.8988 67.3723 21.3525C66.2384 23.5025 65.6641 25.8587 65.6641 28.4357C65.6641 31.4987 66.474 34.2671 68.0792 36.7264C69.6843 39.1856 71.8785 41.1147 74.647 42.5136C77.4156 43.9126 80.4786 44.6194 83.8362 44.6194C87.1937 44.6194 90.139 43.9568 92.7602 42.6315C95.3815 41.3061 97.5757 39.4801 99.3428 37.1534L100.536 35.0476C98.7685 37.4038 96.5449 39.2445 93.9089 40.5698Z" fill="black"/>
<path d="M88.8725 20.4248C87.7092 19.7916 86.3691 19.4676 84.8228 19.4676C83.5416 19.4676 82.3636 19.7622 81.2885 20.3512C80.1988 20.9402 79.3447 21.7649 78.7115 22.7957C78.3728 23.3553 78.1224 23.9443 77.9604 24.5775C78.5642 23.7381 79.3152 23.0755 80.243 22.5601C81.318 21.971 82.4961 21.6765 83.7625 21.6765C85.2941 21.6765 86.6341 22.0005 87.7828 22.6337C88.9314 23.2669 89.8739 24.2094 90.6102 25.4464L99.3576 19.7474L100.55 17.5091L91.7294 23.2522C90.9931 22.0005 90.0359 21.058 88.8725 20.4248Z" fill="black"/>
<path d="M165.655 10.691L163.799 12.6643V22.7221L165.655 23.9738V10.691Z" fill="black"/>
<path d="M155.361 28.5093V31.1305L174.167 44.001H174.255L176.022 42.5726H175.934L155.361 28.5093Z" fill="black"/>
<path d="M144.994 9.98416L142.977 12.2372V43.8832H153.55L155.361 41.8657H144.994V9.98416Z" fill="black"/>
<path d="M40.3203 12.1636C38.2586 11.1475 35.9319 10.6468 33.3548 10.6468H15.9337V41.8657H26.6249V34.6058H33.3548C35.9319 34.6058 38.2586 34.1052 40.3203 33.1185C41.0419 32.7651 41.7193 32.3675 42.3231 31.911C43.457 31.0864 44.4142 30.085 45.1652 28.9069C46.3433 27.0956 46.9176 25.0193 46.9176 22.6779C46.9176 20.3365 46.3286 18.2159 45.1652 16.4046C44.0018 14.5786 42.382 13.1797 40.3203 12.1636ZM35.3281 25.2107C35.1072 25.3727 34.8863 25.52 34.636 25.6378C34.0175 25.947 33.2812 26.0943 32.4565 26.0943H26.6249V19.1584H32.4565C33.6199 19.1584 34.5771 19.4529 35.3281 20.0419C36.0792 20.631 36.462 21.4998 36.462 22.619C36.462 23.7381 36.0792 24.6217 35.3281 25.2107Z" fill="white"/>
<path d="M61.4966 10.691H50.8053V41.8657H61.4966V10.691Z" fill="white"/>
<path d="M78.6967 22.8104C79.33 21.7649 80.1988 20.955 81.2738 20.3659C82.3636 19.7769 83.5417 19.4824 84.8081 19.4824C86.3544 19.4824 87.7092 19.8063 88.8578 20.4396C90.0212 21.0728 90.9636 22.0152 91.7147 23.2669L100.536 17.5238C98.7538 15.1824 96.5449 13.3417 93.8942 12.0016C91.2582 10.6616 88.254 9.9989 84.8965 9.9989C81.5389 9.9989 78.4169 10.7057 75.6337 12.1194C72.8357 13.5331 70.6415 15.4769 69.0216 17.9509C68.3148 19.0406 67.7552 20.1745 67.3576 21.382C66.8422 22.9282 66.5918 24.5628 66.5918 26.3005C66.5918 29.3929 67.4018 32.1761 69.0216 34.65C70.6415 37.124 72.8504 39.0678 75.6337 40.4815C78.4169 41.8952 81.5094 42.602 84.8965 42.602C88.2835 42.602 91.2434 41.9394 93.8942 40.5993C96.5301 39.2592 98.7538 37.4185 100.536 35.0771L91.7147 29.334C90.9784 30.5857 90.0212 31.5282 88.8578 32.1614C87.6944 32.7946 86.3544 33.1185 84.8081 33.1185C83.5269 33.1185 82.3488 32.824 81.2738 32.235C80.1841 31.646 79.33 30.8213 78.6967 29.7905C78.0635 28.745 77.7395 27.5963 77.7395 26.3152C77.7395 25.7262 77.8132 25.1666 77.9457 24.6217C78.1077 23.959 78.358 23.37 78.6967 22.8104Z" fill="white"/>
<path d="M130.754 12.1194C127.941 10.691 124.849 9.98416 121.476 9.98416C118.104 9.98416 115.041 10.691 112.243 12.1194C109.43 13.5478 107.221 15.5064 105.587 17.995C105.116 18.7166 104.718 19.4529 104.394 20.2039C103.569 22.0888 103.142 24.121 103.142 26.271C103.142 29.3045 103.952 32.0583 105.587 34.5469C107.221 37.0356 109.445 38.9942 112.243 40.4226C115.056 41.851 118.133 42.5578 121.476 42.5578C124.819 42.5578 127.956 41.851 130.754 40.4226C133.567 38.9942 135.775 37.0356 137.41 34.5469C139.045 32.0583 139.855 29.2898 139.855 26.271C139.855 23.2522 139.045 20.4837 137.41 17.995C135.79 15.5064 133.567 13.5478 130.754 12.1194ZM127.735 29.761C127.499 30.1292 127.249 30.4826 126.954 30.7918C126.439 31.3514 125.835 31.8227 125.128 32.2055C124.024 32.7946 122.816 33.0891 121.476 33.0891C120.136 33.0891 118.958 32.7946 117.854 32.2055C116.734 31.6165 115.866 30.7918 115.232 29.761C114.599 28.7155 114.275 27.5669 114.275 26.2857C114.275 25.5494 114.393 24.8426 114.599 24.1946C114.761 23.7087 114.967 23.2522 115.232 22.8251C115.866 21.7796 116.749 20.9697 117.854 20.3806C118.973 19.7916 120.18 19.4971 121.476 19.4971C122.772 19.4971 124.024 19.7916 125.128 20.3806C126.233 20.9697 127.102 21.7943 127.735 22.8251C128.368 23.8707 128.692 25.0193 128.692 26.3004C128.692 27.5521 128.368 28.7155 127.735 29.761Z" fill="white"/>
<path d="M165.655 10.691V23.9738L163.799 22.7221L145.082 9.98416H144.994V41.8657H155.361V31.1305V28.5093L175.934 42.5726H176.022V10.691H165.655Z" fill="white"/>
</g>
<defs>
<clipPath id="clip0_213_88">
<rect width="192" height="52.5714" fill="white"/>
</clipPath>
</defs>
</svg>
